<svg width="280" height="40" viewBox="0 0 280 40" fill="none" xmlns="http://www.w3.org/2000/svg">
<rect x="0.5" y="0.5" width="279" height="39" rx="19.5" fill="#0A0A0A"/>
<path d="M79.94 14.8H89.06V26H87.14V16.464H81.86V26H79.94V14.8ZM96.5 26.176C95.8173 26.176 95.1667 26.0693 94.548 25.856C93.9293 25.6427 93.3853 25.312 92.916 24.864C92.4467 24.4053 92.0733 23.8187 91.796 23.104C91.5187 22.3787 91.38 21.504 91.38 20.48V20.16C91.38 19.1787 91.5187 18.3413 91.796 17.648C92.0733 16.944 92.4467 16.368 92.916 15.92C93.3853 15.472 93.9293 15.1467 94.548 14.944C95.1667 14.7307 95.8173 14.624 96.5 14.624C97.1827 14.624 97.8333 14.7307 98.452 14.944C99.0707 15.1467 99.6147 15.472 100.084 15.92C100.553 16.368 100.927 16.944 101.204 17.648C101.481 18.3413 101.62 19.1787 101.62 20.16V20.48C101.62 21.504 101.481 22.3787 101.204 23.104C100.927 23.8187 100.553 24.4053 100.084 24.864C99.6147 25.312 99.0707 25.6427 98.452 25.856C97.8333 26.0693 97.1827 26.176 96.5 26.176ZM96.5 24.48C96.8947 24.48 97.2787 24.4107 97.652 24.272C98.0253 24.1333 98.356 23.9093 98.644 23.6C98.932 23.28 99.1613 22.864 99.332 22.352C99.5133 21.84 99.604 21.216 99.604 20.48V20.16C99.604 19.456 99.5133 18.864 99.332 18.384C99.1613 17.8933 98.932 17.4987 98.644 17.2C98.356 16.8907 98.0253 16.6667 97.652 16.528C97.2787 16.3893 96.8947 16.32 96.5 16.32C96.0947 16.32 95.7053 16.3893 95.332 16.528C94.9587 16.6667 94.628 16.8907 94.34 17.2C94.052 17.4987 93.8227 17.8933 93.652 18.384C93.4813 18.864 93.396 19.456 93.396 20.16V20.48C93.396 21.216 93.4813 21.84 93.652 22.352C93.8227 22.864 94.052 23.28 94.34 23.6C94.628 23.9093 94.9587 24.1333 95.332 24.272C95.7053 24.4107 96.0947 24.48 96.5 24.48ZM102.351 24.336H103.551C103.754 23.9413 103.914 23.4667 104.031 22.912C104.159 22.3467 104.255 21.744 104.319 21.104C104.394 20.464 104.442 19.808 104.463 19.136C104.495 18.464 104.511 17.8187 104.511 17.2V14.8H112.095V24.336H113.391V28.08H111.631V26H104.111V28.08H102.351V24.336ZM110.175 24.336V16.464H106.367V17.52C106.367 19.056 106.293 20.3733 106.143 21.472C105.994 22.5707 105.781 23.5253 105.503 24.336H110.175ZM115.315 14.8H124.435V26H122.515V16.464H117.235V26H115.315V14.8ZM127.315 14.8H129.235V22.96L134.739 14.8H136.595V26H134.675V17.84L129.171 26H127.315V14.8ZM143.791 26.176C143.098 26.176 142.453 26.0693 141.855 25.856C141.269 25.6427 140.757 25.3067 140.319 24.848C139.882 24.3893 139.535 23.8027 139.279 23.088C139.034 22.3627 138.911 21.4933 138.911 20.48V20.16C138.911 19.1893 139.039 18.3573 139.295 17.664C139.551 16.96 139.898 16.384 140.335 15.936C140.783 15.488 141.301 15.1573 141.887 14.944C142.485 14.7307 143.119 14.624 143.791 14.624C144.41 14.624 144.986 14.704 145.519 14.864C146.053 15.0133 146.517 15.2427 146.911 15.552C147.317 15.8613 147.642 16.2453 147.887 16.704C148.143 17.1627 148.298 17.7013 148.351 18.32H146.335C146.197 17.6267 145.898 17.12 145.439 16.8C144.991 16.48 144.442 16.32 143.791 16.32C143.439 16.32 143.093 16.384 142.751 16.512C142.41 16.64 142.101 16.8533 141.823 17.152C141.557 17.4507 141.338 17.8453 141.167 18.336C141.007 18.8267 140.927 19.4347 140.927 20.16V20.48C140.927 21.248 141.013 21.888 141.183 22.4C141.365 22.912 141.594 23.3227 141.871 23.632C142.149 23.9413 142.453 24.16 142.783 24.288C143.125 24.416 143.461 24.48 143.791 24.48C144.559 24.48 145.151 24.304 145.567 23.952C145.994 23.5893 146.25 23.0987 146.335 22.48H148.351C148.287 23.1413 148.127 23.7067 147.871 24.176C147.615 24.6453 147.285 25.0293 146.879 25.328C146.485 25.616 146.021 25.8293 145.487 25.968C144.965 26.1067 144.399 26.176 143.791 26.176ZM156.414 23.472H151.87L150.926 26H149.006L153.246 14.8H155.166L159.406 26H157.358L156.414 23.472ZM152.494 21.808H155.79L154.158 17.2L152.494 21.808ZM162.596 16.464H158.836V14.8H168.276V16.464H164.516V26H162.596V16.464ZM170.034 14.8H171.954V19.024H174.114C174.86 19.024 175.511 19.1093 176.066 19.28C176.62 19.44 177.079 19.6747 177.442 19.984C177.804 20.2827 178.071 20.6507 178.242 21.088C178.423 21.5147 178.514 21.9893 178.514 22.512C178.514 23.0347 178.423 23.5147 178.242 23.952C178.071 24.3787 177.804 24.7467 177.442 25.056C177.079 25.3547 176.62 25.5893 176.066 25.76C175.511 25.92 174.86 26 174.114 26H170.034V14.8ZM173.954 24.336C174.455 24.336 174.876 24.2987 175.218 24.224C175.559 24.1387 175.831 24.0213 176.034 23.872C176.236 23.7227 176.38 23.536 176.466 23.312C176.551 23.0773 176.594 22.8107 176.594 22.512C176.594 22.2133 176.551 21.952 176.466 21.728C176.38 21.4933 176.236 21.3013 176.034 21.152C175.831 21.0027 175.559 20.8907 175.218 20.816C174.876 20.7307 174.455 20.688 173.954 20.688H171.954V24.336H173.954ZM184.916 26.176C184.223 26.176 183.578 26.0693 182.98 25.856C182.394 25.6427 181.882 25.3067 181.444 24.848C181.007 24.3893 180.66 23.8027 180.404 23.088C180.159 22.3627 180.036 21.4933 180.036 20.48V20.16C180.036 19.1893 180.164 18.3573 180.42 17.664C180.676 16.96 181.023 16.384 181.46 15.936C181.908 15.488 182.426 15.1573 183.012 14.944C183.61 14.7307 184.244 14.624 184.916 14.624C185.535 14.624 186.111 14.704 186.644 14.864C187.178 15.0133 187.642 15.2427 188.036 15.552C188.442 15.8613 188.767 16.2453 189.012 16.704C189.268 17.1627 189.423 17.7013 189.476 18.32H187.46C187.322 17.6267 187.023 17.12 186.564 16.8C186.116 16.48 185.567 16.32 184.916 16.32C184.564 16.32 184.218 16.384 183.876 16.512C183.535 16.64 183.226 16.8533 182.948 17.152C182.682 17.4507 182.463 17.8453 182.292 18.336C182.132 18.8267 182.052 19.4347 182.052 20.16V20.48C182.052 21.248 182.138 21.888 182.308 22.4C182.49 22.912 182.719 23.3227 182.996 23.632C183.274 23.9413 183.578 24.16 183.908 24.288C184.25 24.416 184.586 24.48 184.916 24.48C185.684 24.48 186.276 24.304 186.692 23.952C187.119 23.5893 187.375 23.0987 187.46 22.48H189.476C189.412 23.1413 189.252 23.7067 188.996 24.176C188.74 24.6453 188.41 25.0293 188.004 25.328C187.61 25.616 187.146 25.8293 186.612 25.968C186.09 26.1067 185.524 26.176 184.916 26.176ZM193.581 21.488C192.749 21.2427 192.125 20.8427 191.709 20.288C191.293 19.7227 191.085 19.056 191.085 18.288C191.085 17.776 191.176 17.3067 191.357 16.88C191.538 16.4533 191.805 16.0853 192.157 15.776C192.509 15.4667 192.946 15.2267 193.469 15.056C194.002 14.8853 194.621 14.8 195.325 14.8H199.565V26H197.645V21.712H195.293L192.813 26H190.765L193.581 21.488ZM193.005 18.288C193.005 18.864 193.197 19.312 193.581 19.632C193.976 19.952 194.664 20.112 195.645 20.112H197.645V16.464H195.645C194.664 16.464 193.976 16.624 193.581 16.944C193.197 17.264 193.005 17.712 193.005 18.288Z" fill="white"/>
<rect x="0.5" y="0.5" width="279" height="39" rx="19.5" stroke="white"/>
</svg>
